HIERARCHY
ROOT root
{
	OFFSET 0.000000 0.000000 0.000000
	CHANNELS 6 Xposition Yposition Zposition Zrotation Yrotation Xrotation
	JOINT lhip
	{
		OFFSET 0.058581 -0.082280 -0.017664
		CHANNELS 3 Zrotation Yrotation Xrotation
		JOINT lknee
		{
			OFFSET 0.043451 -0.386469 0.008037
			CHANNELS 3 Zrotation Yrotation Xrotation
			JOINT lankle
			{
				OFFSET -0.014790 -0.426874 -0.037428
				CHANNELS 3 Zrotation Yrotation Xrotation
				JOINT ltoe
				{
					OFFSET 0.041054 -0.060286 0.122042
					CHANNELS 3 Zrotation Yrotation Xrotation
					End Site
					{
						OFFSET 0.000000 0.000000 0.000000
					}
				}
			}
		}
	}
	JOINT rhip
	{
		OFFSET -0.060310 -0.090513 -0.013543
		CHANNELS 3 Zrotation Yrotation Xrotation
		JOINT rknee
		{
			OFFSET -0.043257 -0.383688 -0.004843
			CHANNELS 3 Zrotation Yrotation Xrotation
			JOINT rankle
			{
				OFFSET 0.019056 -0.420046 -0.034562
				CHANNELS 3 Zrotation Yrotation Xrotation
				JOINT rtoe
				{
					OFFSET -0.034840 -0.062106 0.130323
					CHANNELS 3 Zrotation Yrotation Xrotation
					End Site
					{
						OFFSET 0.000000 0.000000 0.000000
					}
				}
			}
		}
	}
	JOINT lowerback
	{
		OFFSET 0.004439 0.124404 -0.038385
		CHANNELS 3 Zrotation Yrotation Xrotation
		JOINT upperback
		{
			OFFSET 0.004488 0.137956 0.026820
			CHANNELS 3 Zrotation Yrotation Xrotation
			JOINT chest
			{
				OFFSET -0.002265 0.056032 0.002855
				CHANNELS 3 Zrotation Yrotation Xrotation
				JOINT lowerneck
				{
					OFFSET -0.013390 0.211636 -0.033468
					CHANNELS 3 Zrotation Yrotation Xrotation
					JOINT upperneck
					{
						OFFSET 0.010113 0.088937 0.050410
						CHANNELS 3 Zrotation Yrotation Xrotation
						End Site
						{
							OFFSET 0.000000 0.000000 0.000000
						}
					}
				}
				JOINT lclavicle
				{
					OFFSET 0.071702 0.114000 -0.018898
					CHANNELS 3 Zrotation Yrotation Xrotation
					JOINT lshoulder
					{
						OFFSET 0.122921 0.045205 -0.019046
						CHANNELS 3 Zrotation Yrotation Xrotation
						JOINT lelbow
						{
							OFFSET 0.255332 -0.015649 -0.022946
							CHANNELS 3 Zrotation Yrotation Xrotation
							JOINT lwrist
							{
								OFFSET 0.265709 0.012698 -0.007375
								CHANNELS 3 Zrotation Yrotation Xrotation
								End Site
								{
									OFFSET 0.000000 0.000000 0.000000
								}
							}
						}
					}
				}
				JOINT rclavicle
				{
					OFFSET -0.082954 0.112472 -0.023707
					CHANNELS 3 Zrotation Yrotation Xrotation
					JOINT rshoulder
					{
						OFFSET -0.113228 0.046853 -0.008472
						CHANNELS 3 Zrotation Yrotation Xrotation
						JOINT relbow
						{
							OFFSET -0.260127 -0.014369 -0.031269
							CHANNELS 3 Zrotation Yrotation Xrotation
							JOINT rwrist
							{
								OFFSET -0.269108 0.006794 -0.006027
								CHANNELS 3 Zrotation Yrotation Xrotation
								End Site
								{
									OFFSET 0.000000 0.000000 0.000000
								}
							}
						}
					}
				}
			}
		}
	}
}
MOTION
Frames: 8
Frame Time: 0.033333
-0.038696 0.284786 0.977304 86.801221 -2.779192 77.885568 0.471252 2.494941 0.280594 -5.758938 -2.239683 23.137059 -0.090133 12.861990 -12.392823 0.000000 -0.000000 0.000000 -6.300780 -3.580889 -4.788844 -0.017048 3.994322 30.799174 6.048403 -9.548140 -14.398570 0.000000 -0.000000 0.000000 1.101471 1.099688 16.403205 -2.280871 -1.240442 -0.506966 -1.755233 2.978073 3.814748 0.051697 1.248062 3.814330 1.093827 -1.716777 15.836903 -1.715907 -19.453727 -13.728065 -5.042836 -27.989549 -8.209284 58.238065 -58.404990 -72.110819 17.310213 -12.605416 -47.218973 -0.608717 25.492569 -13.488661 0.511085 33.284372 -14.137515 -42.332920 43.622388 -45.597658 -1.497690 7.841245 -7.488255 
-0.037424 0.283487 0.978177 86.794361 -2.774986 78.119692 0.461535 2.201169 0.422986 -5.672931 -1.825746 22.533211 0.187447 12.587837 -12.187459 0.000000 -0.000000 0.000000 -6.263483 -3.361337 -4.760800 -0.168027 3.574786 30.451849 5.991022 -9.298143 -14.335725 0.000000 -0.000000 0.000000 0.909686 1.206534 15.844653 -2.033509 -1.051431 -0.225753 -1.775920 2.820676 3.752565 0.321331 1.143439 3.224402 0.961867 -1.715851 15.151866 -3.727052 -18.068389 -12.095378 -8.544138 -27.116600 -5.342215 65.673870 -61.860767 -76.016258 17.360189 -12.662619 -46.705899 1.686658 24.167464 -11.949297 4.602721 32.467904 -10.357295 -46.621068 48.179622 -46.986601 -2.325172 8.048911 -7.702718 
-0.035909 0.282153 0.979071 86.902395 -2.749676 78.335495 0.469976 1.919184 0.584668 -5.526828 -1.407204 22.006573 0.277104 12.230652 -12.114394 0.000000 -0.000000 0.000000 -6.224018 -3.246143 -4.630352 -0.439190 2.993663 30.016991 6.036447 -8.849814 -14.251175 0.000000 -0.000000 0.000000 0.608621 1.324205 15.349253 -1.673903 -0.956696 0.055394 -1.775811 2.653853 3.756113 0.589190 1.389826 1.866984 0.866853 -2.158578 15.081376 -5.917356 -16.454662 -10.365468 -12.377172 -25.872088 -2.054005 75.414792 -65.237020 -82.135341 17.719251 -13.272361 -45.960871 4.713881 22.627339 -10.406678 8.871345 31.377760 -6.401645 -51.873349 53.095027 -49.281426 -2.287100 8.550174 -7.641509 
-0.034710 0.280746 0.979805 86.948822 -2.749007 78.755652 0.463683 1.629138 0.479686 -5.372524 -0.914316 21.547415 0.343034 11.799244 -12.077346 0.000000 -0.000000 0.000000 -6.238315 -2.962621 -4.754360 -0.639336 2.252658 29.615624 6.020909 -8.295031 -14.182951 0.000000 -0.000000 0.000000 0.257538 1.397640 14.727724 -1.297351 -0.911142 0.291110 -1.776090 2.512574 3.779304 0.876773 1.872578 0.783065 0.614588 -2.411630 14.511446 -8.264594 -14.571481 -8.551313 -16.469681 -24.071652 1.236548 88.060425 -68.188206 -90.744777 18.380589 -13.781126 -44.317158 7.947132 20.918741 -8.754162 13.959798 30.077544 -2.182488 -58.820784 57.774878 -52.972179 -2.626906 8.814447 -7.464710 
-0.033525 0.279238 0.980475 86.968504 -2.716986 79.106198 0.493127 1.423042 0.403219 -5.197981 -0.353338 21.226411 0.626613 11.244217 -12.120492 0.000000 -0.000000 0.000000 -6.214219 -2.695761 -4.863154 -0.879170 1.503111 29.357287 5.961156 -7.736720 -14.162072 0.000000 -0.000000 0.000000 -0.104471 1.619879 13.643577 -0.864228 -0.828142 1.558501 -1.677844 2.469841 3.759830 1.055089 2.194798 -0.462201 0.355995 -2.741324 13.584588 -10.833231 -12.942912 -6.639532 -21.239748 -22.040368 4.386392 103.402790 -69.542731 -102.011655 18.496790 -13.944705 -41.938693 11.008906 19.216844 -6.814097 19.073152 27.663012 1.737556 -69.039428 61.714100 -60.291729 -2.673808 9.185666 -7.923863 
-0.032260 0.277581 0.980946 86.923331 -2.685228 79.586780 0.546813 1.202863 0.085972 -5.083562 0.243888 21.150476 0.871825 10.844349 -12.331611 0.000000 -0.000000 0.000000 -6.142821 -2.475605 -5.189968 -1.076535 0.896686 29.298395 5.890728 -7.277256 -14.289555 0.000000 -0.000000 0.000000 -0.327948 1.634297 13.434053 -0.552469 -0.678732 1.690918 -1.724419 2.455297 3.621562 1.043749 2.411361 -1.631022 0.236946 -2.823253 12.952160 -13.481960 -10.792702 -4.771876 -25.745569 -19.456738 7.813661 119.664152 -70.875686 -115.642848 19.884188 -13.511645 -41.408179 14.180125 17.138699 -4.887431 24.578096 24.839091 5.923740 -81.463537 64.753098 -70.165439 -3.737072 9.374665 -7.956325 
-0.031607 0.276251 0.980582 87.003394 -2.633747 79.990035 0.604337 0.850437 -0.402460 -5.026338 0.868100 21.513692 1.329437 10.344977 -12.544053 0.000000 -0.000000 0.000000 -6.111571 -2.276446 -5.558889 -1.221917 0.207985 29.478600 5.711464 -6.796110 -14.487608 0.000000 -0.000000 0.000000 -0.431606 1.722280 13.251445 -0.232892 -0.526478 2.028909 -1.810985 2.311438 3.651925 0.948324 2.519901 -2.473001 0.153607 -2.835937 11.845447 -16.206222 -8.559072 -2.648625 -30.236057 -17.026128 10.487232 132.453025 -71.031579 -126.007649 19.739075 -13.665161 -41.382950 17.337191 14.966327 -2.841999 29.369093 21.776285 9.346435 -94.571440 66.447592 -80.792308 -4.642929 10.308399 -7.985577 
-0.031048 0.275247 0.979320 87.102619 -2.622136 80.245041 0.622031 0.663061 -0.956532 -4.940529 1.369731 22.318928 1.604808 9.922046 -13.130589 0.000000 -0.000000 0.000000 -6.111388 -2.070735 -5.962444 -1.382263 -0.368408 30.051291 5.555441 -6.460551 -14.868797 0.000000 -0.000000 0.000000 -0.496661 1.678938 13.532708 -0.063280 -0.430346 2.303224 -1.852842 2.044227 3.457359 0.913286 2.597793 -2.674860 -0.020928 -2.488476 10.508389 -19.109529 -6.542890 -0.778717 -33.452586 -14.001153 12.305186 143.070965 -70.588825 -134.811973 19.713757 -13.939031 -40.927814 20.029700 13.067587 -1.185440 33.891502 18.950690 12.137867 -105.004128 67.344349 -89.967193 -4.914870 10.446167 -8.559645 
